<?xml version="1.0" encoding="UTF-8" standalone="no"?>
<!-- Created with Inkscape (http://www.inkscape.org/) -->

<svg
   width="100"
   height="50"
   viewBox="0 0 26.458333 13.229167"
   version="1.1"
   id="svg878"
   inkscape:version="1.1.2 (0a00cf5339, 2022-02-04)"
   sodipodi:docname="grass.svg"
   xmlns:inkscape="http://www.inkscape.org/namespaces/inkscape"
   xmlns:sodipodi="http://sodipodi.sourceforge.net/DTD/sodipodi-0.dtd"
   xmlns="http://www.w3.org/2000/svg"
   xmlns:svg="http://www.w3.org/2000/svg">
  <sodipodi:namedview
     id="namedview880"
     pagecolor="#ffffff"
     bordercolor="#666666"
     borderopacity="1.0"
     inkscape:pageshadow="2"
     inkscape:pageopacity="0.0"
     inkscape:pagecheckerboard="0"
     inkscape:document-units="px"
     showgrid="false"
     units="px"
     inkscape:zoom="5.9081369"
     inkscape:cx="23.696133"
     inkscape:cy="33.343845"
     inkscape:window-width="1920"
     inkscape:window-height="1015"
     inkscape:window-x="0"
     inkscape:window-y="36"
     inkscape:window-maximized="1"
     inkscape:current-layer="layer1" />
  <defs
     id="defs875" />
  <g
     inkscape:label="Layer 1"
     inkscape:groupmode="layer"
     id="layer1">
    <path
       id="rect904"
       style="fill:#2cc33c;fill-opacity:1;stroke:none;stroke-width:2.08021;stroke-linecap:butt;stroke-linejoin:round;stroke-miterlimit:4;stroke-dasharray:none;stroke-opacity:1"
       d="M 60.664062 15.427734 L 58.4375 16.595703 C 58.595749 17.501635 58.47578 18.406038 58.335938 19.304688 C 58.065701 20.637553 57.548451 21.903586 57.017578 23.150391 C 56.685622 23.973011 56.238934 24.758022 55.984375 25.611328 C 55.842567 26.086625 55.806373 26.391484 55.722656 26.880859 C 55.492974 28.340539 55.682579 29.811903 55.912109 31.257812 C 56.016269 31.81657 56.175025 32.359181 56.353516 32.896484 L 52.048828 32.896484 C 52.080462 32.720245 52.112124 32.543421 52.142578 32.367188 C 52.443088 30.12899 52.520195 27.864615 52.166016 25.625 C 51.91959 24.300453 51.582351 23.000661 51.236328 21.699219 C 51.236328 21.699219 49.046879 22.90625 49.046875 22.90625 C 49.50498 24.150253 49.836773 25.432819 50.099609 26.730469 C 50.421663 28.587474 50.455337 30.487101 50.226562 32.357422 C 50.204474 32.537937 50.175922 32.71699 50.146484 32.896484 L 43.8125 32.896484 C 43.87861 32.694151 43.939242 32.4904 43.990234 32.283203 C 44.113145 31.732889 44.191395 31.432673 44.265625 30.869141 C 44.404069 29.818404 44.38275 28.751275 44.253906 27.701172 C 44.126461 26.925352 44.001329 26.158391 43.712891 25.421875 C 43.52055 24.930763 43.444753 24.850261 43.189453 24.421875 C 43.118738 24.303236 43.048512 24.183523 42.978516 24.064453 L 40.833984 25.339844 C 41.686332 26.324531 41.955128 27.55831 42.167969 28.806641 C 42.361223 30.226507 42.235142 31.531889 41.935547 32.896484 L 39.984375 32.896484 C 40.000532 32.383588 40.015453 31.870217 40.029297 31.357422 C 40.067848 29.809822 40.060671 28.262877 40.052734 26.714844 L 37.830078 27.871094 C 37.97593 29.374651 37.982599 30.887148 37.984375 32.396484 C 37.982818 32.562812 37.979039 32.730128 37.976562 32.896484 L 34.589844 32.896484 C 34.600084 32.867038 34.609791 32.836508 34.619141 32.806641 C 35.09793 31.271652 35.430827 29.69768 35.689453 28.111328 C 35.793477 27.343708 35.872818 26.94425 35.876953 26.173828 C 35.883653 24.922788 35.553635 23.718592 35.1875 22.533203 C 35.11614 22.315664 34.564132 20.630447 34.496094 20.435547 C 34.189117 19.556194 33.80873 18.693565 33.634766 17.773438 L 31.414062 18.951172 C 31.72531 19.83808 32.140994 20.683696 32.472656 21.5625 C 32.743917 22.281259 32.933536 22.914086 33.166016 23.644531 C 33.523578 24.818944 33.798682 26.017659 33.785156 27.251953 C 33.77635 28.051743 33.712211 28.337577 33.603516 29.138672 C 33.413228 30.413785 33.129624 31.670565 32.740234 32.896484 L 29.386719 32.896484 C 29.385173 31.500818 29.349788 30.100237 29.134766 28.720703 C 29.0051 28.128606 28.971444 27.860431 28.75 27.296875 C 28.384396 26.366444 27.773391 25.560215 27.216797 24.740234 C 26.744408 24.07453 26.817467 24.165986 26.335938 23.529297 C 26.016137 23.10645 25.700357 22.658432 25.3125 22.292969 C 25.2462 22.230501 25.1706 22.178168 25.099609 22.121094 L 23.021484 23.53125 C 23.087755 23.565417 23.158032 23.589537 23.21875 23.632812 C 23.63318 23.928167 23.96054 24.369053 24.275391 24.759766 C 24.732698 25.32726 24.737154 25.348016 25.173828 25.947266 C 25.731531 26.75026 26.316395 27.552584 26.669922 28.472656 C 26.884758 29.031782 26.909479 29.260108 27.037109 29.847656 C 27.191942 30.856251 27.265122 31.875841 27.285156 32.896484 L 24.599609 32.896484 L 24.677734 32.855469 C 24.5695 31.771858 24.463454 30.687392 24.322266 29.607422 C 24.146876 28.403091 23.924904 27.20798 23.681641 26.015625 L 21.472656 27.205078 C 21.816242 28.350704 22.04494 29.526765 22.263672 30.701172 C 22.38864 31.429087 22.468226 32.161657 22.535156 32.896484 L 18.380859 32.896484 C 18.584744 32.181749 18.774931 31.463113 18.923828 30.734375 C 19.073124 29.923008 19.229999 29.112363 19.28125 28.287109 C 19.318063 27.693989 19.297451 27.253505 19.277344 26.660156 C 19.268235 26.392702 19.256601 26.126777 19.246094 25.859375 C 19.195943 24.778147 19.113924 23.698287 19.072266 22.617188 L 16.832031 23.757812 C 16.986198 24.814988 17.075886 25.87914 17.138672 26.945312 C 17.149746 27.211342 17.162313 27.478054 17.171875 27.744141 C 17.19493 28.384918 17.216483 28.716543 17.169922 29.355469 C 17.110761 30.168027 16.951965 30.968336 16.802734 31.767578 C 16.724682 32.147307 16.631153 32.523322 16.529297 32.896484 L 15.099609 32.896484 C 14.894343 31.632615 14.718354 30.363987 14.539062 29.095703 C 14.335555 27.923365 14.159754 26.681731 13.511719 25.658203 L 11.369141 26.962891 C 12.079096 27.877199 12.256793 29.094277 12.455078 30.203125 C 12.599384 31.098964 12.727782 31.997963 12.853516 32.896484 L 10.361328 32.896484 C 10.372052 32.421251 10.380101 31.94616 10.373047 31.470703 C 10.335716 29.605131 10.207357 27.720314 9.7011719 25.916016 C 9.2429665 24.635346 8.7079771 23.310502 7.6972656 22.359375 L 5.6074219 23.732422 C 5.7019592 23.799592 5.8049053 23.855486 5.890625 23.933594 C 6.7823354 24.746135 7.2428135 25.954952 7.640625 27.058594 C 8.1593255 28.836996 8.2710017 30.698252 8.2773438 32.541016 C 8.2751103 32.65927 8.2713563 32.778286 8.2675781 32.896484 L 3.8261719 32.896484 C 3.8231313 32.889308 3.823454 32.888265 3.8203125 32.880859 C 3.758118 32.684975 3.687857 32.491513 3.6347656 32.292969 C 3.350128 31.228516 3.3088083 30.120822 3.3183594 29.025391 C 3.3500961 27.753333 3.4160027 26.484803 3.4941406 25.214844 L 1.265625 26.349609 C 1.2963337 27.598896 1.235454 28.8503 1.1972656 30.099609 C 1.1572781 31.089542 1.2232809 31.985595 1.4140625 32.896484 L 0.095703125 32.896484 L 0.095703125 50.683594 L 99.953125 50.683594 L 99.953125 32.896484 L 99.628906 32.896484 L 100.0957 32.632812 C 99.82967 32.07762 99.521485 31.544795 99.246094 30.994141 C 98.806727 30.200106 98.279698 29.455583 97.896484 28.630859 C 97.475494 27.69129 97.171383 26.704128 96.742188 25.767578 L 94.570312 27.003906 C 95.088308 27.889362 95.381358 28.881123 95.787109 29.818359 C 96.161736 30.655018 96.679096 31.415152 97.123047 32.214844 C 97.238179 32.443429 97.357951 32.669429 97.476562 32.896484 L 92.017578 32.896484 C 91.635762 32.200132 91.435773 31.467604 91.380859 30.628906 C 91.263399 29.131841 91.251161 27.630484 91.181641 26.130859 C 91.108991 24.706728 91.093388 23.251685 90.710938 21.869141 L 88.539062 23.105469 C 89.007743 24.410096 89.030746 25.834141 89.099609 27.205078 C 89.142318 28.715309 89.145989 30.224971 89.255859 31.732422 C 89.274332 32.143316 89.332735 32.527546 89.429688 32.896484 L 85.017578 32.896484 C 85.389786 31.362128 85.750205 29.821303 85.947266 28.253906 C 86.033779 27.231012 86.090142 26.881744 86.066406 25.855469 C 86.035036 24.493613 85.757726 23.16088 85.308594 21.876953 C 84.843353 20.61911 84.416569 19.268965 83.558594 18.216797 L 81.447266 19.568359 C 81.516544 19.62913 81.592577 19.68351 81.654297 19.751953 C 82.377011 20.55331 82.886036 22.0156 83.265625 23.011719 C 83.69394 24.270333 83.986188 25.579322 84.027344 26.912109 C 84.057958 27.901391 83.994578 28.285126 83.90625 29.271484 C 83.750825 30.49802 83.469407 31.700879 83.160156 32.896484 L 78.875 32.896484 C 78.903213 31.889298 78.894864 30.881998 78.833984 29.875 C 78.746639 28.21723 78.645961 26.551995 78.070312 24.976562 C 77.729135 24.05957 77.922499 24.56753 77.582031 23.683594 C 77.378088 23.154116 77.205748 22.585035 76.822266 22.152344 L 74.708984 23.515625 C 75.10616 23.854951 75.279498 24.394147 75.476562 24.861328 C 75.755076 25.521582 75.721014 25.453318 75.984375 26.136719 C 76.545756 27.683097 76.669794 29.320883 76.751953 30.949219 C 76.7921 31.598442 76.795798 32.248392 76.773438 32.896484 L 73.728516 32.896484 C 73.631127 32.622382 73.505825 32.349348 73.367188 32.064453 C 72.776602 30.964815 72.031324 29.967619 71.412109 28.884766 C 70.994407 28.085649 70.58479 27.273445 70.408203 26.380859 L 68.1875 27.558594 C 68.466467 28.444219 68.882584 29.267997 69.326172 30.080078 C 69.870587 31.045698 70.531886 31.933397 71.076172 32.896484 L 64.617188 32.896484 C 64.587528 31.690159 64.549232 30.485718 64.523438 29.279297 C 64.493579 28.163493 64.47393 27.044521 64.679688 25.941406 C 64.871612 24.878074 65.13396 23.829682 65.484375 22.806641 L 63.226562 23.888672 C 62.958178 24.919847 62.699893 25.951912 62.505859 27 C 62.286571 28.116677 62.344615 29.246445 62.386719 30.375 C 62.425608 31.214633 62.444775 32.056101 62.453125 32.896484 L 58.931641 32.896484 C 58.559799 32.001969 58.195508 31.101339 58.013672 30.144531 C 57.783688 28.718156 57.627114 27.26641 57.878906 25.830078 C 57.985753 25.277825 57.997701 25.126305 58.167969 24.59375 C 58.436202 23.754902 58.845575 22.965056 59.183594 22.154297 C 59.719058 20.887964 60.238617 19.602686 60.496094 18.246094 C 60.644062 17.311108 60.74691 16.375372 60.664062 15.427734 z "
       transform="scale(0.26458333)" />
  </g>
</svg>
