<?xml version="1.0" encoding="UTF-8" standalone="no"?>
<!-- Created with Inkscape (http://www.inkscape.org/) -->

<svg
   width="640"
   height="480"
   viewBox="0 0 169.33333 127"
   version="1.1"
   id="svg5"
   inkscape:version="1.1.2 (0a00cf5339, 2022-02-04)"
   sodipodi:docname="sky.svg"
   xmlns:inkscape="http://www.inkscape.org/namespaces/inkscape"
   xmlns:sodipodi="http://sodipodi.sourceforge.net/DTD/sodipodi-0.dtd"
   xmlns="http://www.w3.org/2000/svg"
   xmlns:svg="http://www.w3.org/2000/svg">
  <sodipodi:namedview
     id="namedview7"
     pagecolor="#ffffff"
     bordercolor="#666666"
     borderopacity="1.0"
     inkscape:pageshadow="2"
     inkscape:pageopacity="0.0"
     inkscape:pagecheckerboard="0"
     inkscape:document-units="mm"
     showgrid="false"
     units="px"
     width="640px"
     inkscape:zoom="1.4770342"
     inkscape:cx="199.72456"
     inkscape:cy="243.73166"
     inkscape:window-width="1920"
     inkscape:window-height="1015"
     inkscape:window-x="0"
     inkscape:window-y="36"
     inkscape:window-maximized="1"
     inkscape:current-layer="layer1" />
  <defs
     id="defs2" />
  <g
     inkscape:label="Layer 1"
     inkscape:groupmode="layer"
     id="layer1">
    <rect
       style="fill:#55ddff;fill-opacity:1;stroke:none;stroke-width:0.529167;stroke-linecap:butt;stroke-linejoin:round;stroke-miterlimit:4;stroke-dasharray:none;stroke-opacity:1"
       id="rect315"
       width="170.567"
       height="127.09894"
       x="-0.12835716"
       y="-0.031755861" />
    <path
       id="path1558"
       style="fill:#ffffff;fill-opacity:1;stroke:none;stroke-width:7.55906;stroke-linecap:butt;stroke-linejoin:round;stroke-miterlimit:4;stroke-dasharray:none;stroke-opacity:1"
       d="M 184.27734 40.927734 A 20.696678 20.696678 0 0 0 165.63672 52.632812 A 28.393221 28.393221 0 0 0 150.72852 48.402344 A 28.393221 28.393221 0 0 0 122.33594 76.794922 A 28.393221 28.393221 0 0 0 150.72852 105.18945 A 28.393221 28.393221 0 0 0 155.85742 104.70117 A 54.503596 28.21202 0 0 0 200.28906 116.57812 A 54.503596 28.21202 0 0 0 226.55664 113.06836 A 31.946 31.946 0 0 0 243.45508 117.92969 A 31.946 31.946 0 0 0 275.40039 85.984375 A 31.946 31.946 0 0 0 243.45508 54.037109 A 31.946 31.946 0 0 0 221.85352 62.457031 A 54.503596 28.21202 0 0 0 221.42383 62.365234 A 18.290286 18.290286 0 0 0 208.25195 56.763672 A 18.290286 18.290286 0 0 0 204.48633 57.164062 A 20.696678 20.696678 0 0 0 184.27734 40.927734 z "
       transform="scale(0.26458333)"
       inkscape:export-filename="/home/pvg/Projects/LD53/project/sky/cloud2.png"
       inkscape:export-xdpi="33.7495"
       inkscape:export-ydpi="33.7495" />
    <path
       id="path2327"
       style="fill:#ffffff;fill-opacity:1;stroke:none;stroke-width:2;stroke-linecap:butt;stroke-linejoin:round;stroke-miterlimit:4;stroke-dasharray:none;stroke-opacity:1"
       d="M 423.29492 119.76758 A 29.613492 29.613492 0 0 0 394.37109 143.07617 A 23.039327 23.039327 0 0 0 374.49414 165.88867 A 23.039327 23.039327 0 0 0 397.5332 188.92773 A 23.039327 23.039327 0 0 0 413.58984 182.39062 A 22.17593 22.17593 0 0 0 434.75 197.94531 A 22.17593 22.17593 0 0 0 452.69531 188.77344 A 18.555539 18.555539 0 0 0 465.87891 194.29102 A 18.555539 18.555539 0 0 0 483.71094 180.82227 A 17.433564 18.186226 0 0 0 486.83398 181.12891 A 17.433564 18.186226 0 0 0 504.26758 162.94336 A 17.433564 18.186226 0 0 0 486.83398 144.75586 A 17.433564 18.186226 0 0 0 482.38281 145.37305 A 20.417521 20.417521 0 0 0 463.03125 131.46094 A 20.417521 20.417521 0 0 0 449.85938 136.29883 A 29.613492 29.613492 0 0 0 423.29492 119.76758 z "
       transform="scale(0.26458333)"
       inkscape:export-filename="/home/pvg/Projects/LD53/project/sky/cloud1.png"
       inkscape:export-xdpi="33.7495"
       inkscape:export-ydpi="33.7495" />
  </g>
</svg>
